<svg width="81" height="82" viewBox="0 0 81 82" fill="none" xmlns="http://www.w3.org/2000/svg">
<path d="M45.5625 74.75H35.4375C34.5424 74.75 33.684 74.3944 33.051 73.7615C32.4181 73.1286 32.0625 72.2701 32.0625 71.375V62.9375H48.9375V71.375C48.9375 72.2701 48.5819 73.1286 47.949 73.7615C47.316 74.3944 46.4576 74.75 45.5625 74.75Z" fill="#C07800"/>
<path d="M35.4375 62.9377L48.9375 63.0559C48.667 61.0525 48.7183 59.0187 49.0894 57.0315C49.4001 56.0587 49.843 55.1332 50.4056 54.2809C50.7241 53.8614 51.0799 53.4717 51.4688 53.1165L51.705 52.914C53.9492 51.0995 55.7704 48.817 57.0411 46.2259C58.3119 43.6348 59.0018 40.7975 59.0625 37.9121C59.0625 32.989 57.1068 28.2676 53.6257 24.7864C50.1445 21.3053 45.4231 19.3496 40.5 19.3496C35.5769 19.3496 30.8555 21.3053 27.3743 24.7864C23.8932 28.2676 21.9375 32.989 21.9375 37.9121V38.0134C21.9707 40.8088 22.6112 43.5636 23.8146 46.0869C25.018 48.6102 26.7555 50.8418 28.9069 52.6271C30.1396 54.0329 31.1472 55.6211 31.8938 57.3352C32.6337 58.9792 33.0901 60.7365 33.2438 62.5327L33.75 62.9377" fill="#F5BB5C"/>
<path d="M40.5 3.875V11.9244M20.25 10.3213L24.3338 15.6875L20.25 10.3213ZM60.75 10.3213L56.6663 15.6875L60.75 10.3213Z" stroke="#5D3B01" stroke-width="3" stroke-linecap="round" stroke-linejoin="round"/>
<path d="M45.5625 74.75H35.4375C34.5422 74.6655 33.7076 74.2603 33.0875 73.6091C32.4673 72.9579 32.1033 72.1046 32.0625 71.2063V62.9375H48.9375V71.2063C48.8967 72.1046 48.5327 72.9579 47.9125 73.6091C47.2924 74.2603 46.4578 74.6655 45.5625 74.75V74.75Z" stroke="#5D3B01" stroke-width="3" stroke-linecap="round" stroke-linejoin="round"/>
<path d="M48.938 64.625C48.938 58.4994 49.6299 57.0819 49.6299 57.0819C50.1899 55.1254 51.2963 53.3692 52.8192 52.0194C53.5952 51.297 54.3172 50.5187 54.9792 49.6906C56.278 48.0397 57.3087 46.1946 58.0336 44.2231C58.7423 42.2169 59.113 40.107 59.1305 37.9794V37.8781C59.1529 32.9132 57.2033 28.1424 53.7099 24.6143C50.2166 21.0862 45.4654 19.0893 40.5005 19.0625V19.0625C35.54 19.1026 30.7984 21.1106 27.3177 24.6451C23.837 28.1795 21.902 32.9514 21.938 37.9119V38.0131C21.9555 40.1407 22.3262 42.2507 23.0349 44.2569C23.7598 46.2284 24.7905 48.0735 26.0892 49.7244C26.7513 50.5524 27.4732 51.3308 28.2492 52.0531C29.7722 53.4029 30.8786 55.1591 31.4386 57.1156C31.4386 57.1156 32.063 58.5331 32.063 64.625" stroke="#5D3B01" stroke-width="3" stroke-linecap="round" stroke-linejoin="round"/>
</svg>
