<svg width="81" height="82" viewBox="0 0 81 82" fill="none" xmlns="http://www.w3.org/2000/svg">
<path fill-rule="evenodd" clip-rule="evenodd" d="M38.6444 25.6434C37.121 23.9728 35.2746 22.6285 33.2169 21.6916C31.1592 20.7548 28.9329 20.245 26.6726 20.1929C24.4123 20.1409 22.1648 20.5477 20.0662 21.3888C17.9676 22.2299 16.0613 23.4878 14.4625 25.0866C12.8638 26.6853 11.6059 28.5916 10.7648 30.6902C9.92366 32.7889 9.51683 35.0363 9.56889 37.2966C9.62094 39.5569 10.1308 41.7832 11.0676 43.8409C12.0044 45.8986 13.3488 47.745 15.0194 49.2684L40.5007 74.7497L65.9819 49.3191C67.8629 47.4199 69.2659 45.1012 70.0753 42.5536C70.8847 40.0061 71.0774 37.3028 70.6374 34.6662C70.1974 32.0297 69.1374 29.5354 67.5447 27.3887C65.9519 25.2421 63.872 23.5045 61.4763 22.3191C59.2072 21.1898 56.7038 20.6117 54.1694 20.6316C51.9712 20.6328 49.7951 21.0705 47.7674 21.9192C45.7396 22.768 43.9006 24.0109 42.3569 25.5759L40.5007 27.4997L38.6444 25.6434Z" fill="#DF704D"/>
<path d="M38.644 25.6095C35.505 22.5716 31.299 20.8871 26.9308 20.9182C22.5626 20.9493 18.3811 22.6935 15.2856 25.7757C12.1901 28.858 10.4279 33.032 10.378 37.4C10.3282 41.7681 11.9947 45.9812 15.019 49.1333L40.5003 74.412L65.9815 49.0995C67.8424 47.2228 69.2294 44.9298 70.0277 42.4104C70.8261 39.891 71.0128 37.2177 70.5725 34.6118C70.1321 32.0058 69.0773 29.5423 67.4954 27.4251C65.9135 25.308 63.8501 23.5981 61.4759 22.437C59.2069 21.3078 56.7035 20.7296 54.169 20.7495V20.7495C51.9719 20.7476 49.7962 21.1822 47.7684 22.0281C45.7406 22.874 43.901 24.1143 42.3565 25.677L40.5003 27.4995L38.644 25.6095Z" stroke="#77280C" stroke-width="3" stroke-linecap="round" stroke-linejoin="round"/>
</svg>
