<svg width="81" height="82" viewBox="0 0 81 82" fill="none" xmlns="http://www.w3.org/2000/svg">
<path d="M42.8449 37.625H17.0936C13.7186 37.625 11.6936 41.1856 11.8286 44.24C11.928 45.6379 12.562 46.9439 13.599 47.8866C14.636 48.8293 15.9963 49.3364 17.3974 49.3025H18.3592C17.7454 49.3156 17.1403 49.4503 16.5789 49.6989C16.0175 49.9475 15.511 50.3051 15.0888 50.7508C14.6666 51.1966 14.337 51.7217 14.1192 52.2958C13.9014 52.8698 13.7996 53.4814 13.8199 54.095C13.8205 55.3014 14.276 56.4631 15.0956 57.3483C15.9151 58.2336 17.0384 58.7772 18.2411 58.8706C17.5236 59.4331 16.9822 60.1892 16.6806 61.0495C16.3791 61.9099 16.3302 62.8386 16.5396 63.7259C16.749 64.6132 17.208 65.422 17.8624 66.0568C18.5167 66.6916 19.3391 67.1258 20.2324 67.3081C19.6699 68.3381 19.4962 69.5358 19.743 70.6831C20.0332 71.7938 20.6923 72.7729 21.6122 73.4598C22.5321 74.1466 23.6581 74.5004 24.8055 74.4631H38.6092C40.414 74.4524 42.2105 74.22 43.9586 73.7712L52.6155 71.24C53.1217 71.0881 60.6142 71.24 63.9892 71.24C70.0136 71.0037 71.6336 43.3625 63.9892 43.3625C63.9892 43.3625 61.2049 43.4637 60.6142 43.3625C60.3442 43.3625 59.7367 42.215 58.2349 40.595L58.0999 40.4262C55.9061 38.0469 53.4086 34.9756 51.6536 33.2375C47.3842 29.0525 43.8405 25.4581 41.3767 20.0075C40.1617 17.0881 40.0099 15.6875 37.1242 15.6875C35.963 15.8507 34.9055 16.4445 34.1615 17.351C33.4176 18.2574 33.0415 19.4105 33.108 20.5812C33.2364 22.1946 33.4504 23.8 33.7492 25.3906C34.8124 31.0944 39.5374 37.3381 39.6724 37.625" fill="#378FE9"/>
<path d="M39.6398 39.3125H17.0948C13.7198 39.3125 11.6779 41.3206 11.8129 44.375C11.9083 45.7775 12.5435 47.0884 13.5851 48.0324C14.6266 48.9764 15.9935 49.48 17.3986 49.4375H18.3604C17.1236 49.4728 15.9511 49.9971 15.1002 50.8955C14.2493 51.7939 13.7893 52.993 13.8211 54.23C13.8217 55.4364 14.2772 56.5981 15.0968 57.4833C15.9163 58.3686 17.0396 58.9122 18.2423 59.0056V59.0056C17.5248 59.5681 16.9834 60.3242 16.6818 61.1845C16.3803 62.0449 16.3314 62.9736 16.5408 63.8609C16.7502 64.7482 17.2092 65.557 17.8636 66.1918C18.5179 66.8266 19.3403 67.2608 20.2336 67.4431C19.6711 68.4731 19.4974 69.6708 19.7442 70.8181C20.0344 71.9288 20.6935 72.9079 21.6134 73.5948C22.5333 74.2816 23.6593 74.6354 24.8067 74.5981H38.6104C40.4152 74.5874 42.2117 74.355 43.9598 73.9062L52.6167 71.375C53.1229 71.2231 60.6154 71.375 63.9904 71.375C70.0148 71.1387 71.6348 43.4975 63.9904 43.4975C63.9904 43.4975 61.2061 43.5987 60.6154 43.4975C60.3454 43.4975 59.7379 42.35 58.2361 40.73L58.1011 40.5612C55.9073 38.1819 53.4098 35.1106 51.6548 33.3725C47.3854 29.1875 43.8417 25.61 41.3779 20.1425C40.1629 17.1556 40.0111 15.6875 37.1254 15.6875C35.9452 15.807 34.8602 16.3888 34.1077 17.3058C33.3551 18.2228 32.9961 19.4004 33.1092 20.5812C33.2376 22.1946 33.4516 23.8 33.7504 25.3906C34.8136 31.0944 39.5386 38.8906 39.6736 39.245L39.6398 39.3125Z" stroke="#004182" stroke-width="3" stroke-linecap="round" stroke-linejoin="round"/>
</svg>
