<svg width="81" height="82" viewBox="0 0 81 82" fill="none" xmlns="http://www.w3.org/2000/svg">
<path d="M41.3438 69.6875C56.7214 69.6875 69.1875 57.2214 69.1875 41.8438C69.1875 26.4661 56.7214 14 41.3438 14C25.9661 14 13.5 26.4661 13.5 41.8438C13.5 57.2214 25.9661 69.6875 41.3438 69.6875Z" fill="#DEB8DC" stroke="#523951" stroke-width="3" stroke-miterlimit="10"/>
<path d="M25.3129 57.3012L44.6854 54.0612C45.1046 53.989 45.534 54.0009 45.9486 54.0963C46.3632 54.1916 46.7546 54.3685 47.1002 54.6167C47.4457 54.8648 47.7384 55.1793 47.9612 55.5416C48.184 55.904 48.3324 56.3071 48.3979 56.7275C48.4924 57.5578 48.2755 58.3936 47.7892 59.0732C47.3029 59.7527 46.5818 60.2277 45.7654 60.4062L37.6485 61.7731C37.9936 61.7167 38.3465 61.731 38.6859 61.8151C39.0253 61.8993 39.3441 62.0515 39.6229 62.2625C40.1799 62.6656 40.5558 63.2718 40.6692 63.95C40.7781 64.6314 40.6268 65.3289 40.2455 65.9041C39.8641 66.4792 39.2805 66.89 38.6104 67.055C38.9841 67.2465 39.3074 67.5237 39.5537 67.8639C39.8 68.2041 39.9625 68.5976 40.0279 69.0125C40.1315 69.6395 40.0215 70.2831 39.7155 70.84C39.4095 71.397 38.9252 71.835 38.3404 72.0837C38.7494 72.6486 38.9192 73.352 38.8129 74.0412C38.7431 74.6953 38.4556 75.307 37.9966 75.7783C37.5376 76.2495 36.9337 76.5529 36.2817 76.64L35.3367 76.8425C32.8842 77.36 30.4204 77.765 27.9454 78.0575C25.1188 78.0921 22.2949 77.8718 19.5079 77.3993C18.5704 77.1975 17.7007 76.7576 16.9826 76.1222C16.2644 75.4867 15.7219 74.6771 15.4073 73.7712C13.5679 69.9406 12.5554 62.7012 14.8167 60.6087C16.2498 59.6513 17.2964 58.216 17.7698 56.5587C18.8498 54.0781 19.9804 51.2262 20.841 48.7962C21.7017 46.3662 22.0392 45.2693 23.6423 44.6787C24.4156 44.4497 25.2463 44.5142 25.975 44.8599C26.7037 45.2055 27.2792 45.808 27.591 46.5518C27.8326 48.2391 27.7524 49.9569 27.3548 51.6143C26.9498 54.9893 26.9329 55.7656 27.3548 56.9131" fill="#DEB8DC"/>
<path d="M37.1254 46.0627H42.1879M44.6854 54.0615C45.1046 53.9892 45.534 54.0011 45.9486 54.0965C46.3632 54.1919 46.7546 54.3688 47.1002 54.6169C47.4457 54.8651 47.7384 55.1795 47.9612 55.5419C48.184 55.9043 48.3324 56.3074 48.3979 56.7277C48.4924 57.558 48.2755 58.3938 47.7892 59.0734C47.3029 59.753 46.5818 60.228 45.7654 60.4065L37.6485 61.7733C37.9936 61.717 38.3466 61.7313 38.6859 61.8154C39.0253 61.8995 39.3441 62.0517 39.6229 62.2627C40.1799 62.6658 40.5558 63.2721 40.6692 63.9502C40.7781 64.6317 40.6268 65.3292 40.2455 65.9043C39.8641 66.4795 39.2805 66.8903 38.6104 67.0552C38.9842 67.2468 39.3074 67.524 39.5537 67.8641C39.8 68.2043 39.9625 68.5978 40.0279 69.0127C40.1316 69.6397 40.0215 70.2833 39.7155 70.8403C39.4095 71.3972 38.9252 71.8352 38.3404 72.084C38.7494 72.6488 38.9192 73.3522 38.8129 74.0415C38.7431 74.6956 38.4556 75.3073 37.9966 75.7785C37.5376 76.2497 36.9337 76.5532 36.2817 76.6402L35.3367 76.8427C32.8842 77.3602 30.4204 77.7652 27.9454 78.0577C25.1188 78.0923 22.2949 77.8721 19.5079 77.3996C18.5704 77.1977 17.7007 76.7579 16.9826 76.1224C16.2644 75.487 15.7219 74.6773 15.4073 73.7715C13.5679 69.9408 12.5554 62.7015 14.8167 60.609C16.2498 59.6515 17.2964 58.2162 17.7698 56.559C18.8498 54.0783 19.9804 51.2265 20.841 48.7965C21.7017 46.3665 22.0392 45.2696 23.6423 44.679C24.4156 44.4499 25.2463 44.5144 25.975 44.8601C26.7037 45.2058 27.2792 45.8083 27.591 46.5521C27.8326 48.2394 27.7524 49.9571 27.3548 51.6146C26.9498 54.9896 26.9329 55.7658 27.3548 56.9133L44.6854 54.0615ZM27.0004 24.1252C28.2365 22.8819 29.8903 22.1422 31.641 22.0496C33.3778 21.7961 35.1468 22.1992 36.6023 23.1802L27.0004 24.1252Z" stroke="#523951" stroke-width="3" stroke-linecap="round" stroke-linejoin="round"/>
<path d="M31.2188 37.625C33.0827 37.625 34.5938 36.114 34.5938 34.25C34.5938 32.386 33.0827 30.875 31.2188 30.875C29.3548 30.875 27.8438 32.386 27.8438 34.25C27.8438 36.114 29.3548 37.625 31.2188 37.625Z" fill="#523951"/>
<path d="M50.625 41C52.489 41 54 39.489 54 37.625C54 35.761 52.489 34.25 50.625 34.25C48.761 34.25 47.25 35.761 47.25 37.625C47.25 39.489 48.761 41 50.625 41Z" fill="#523951"/>
<path d="M48.9375 28.6473C50.5672 28.0225 52.3703 28.0225 54 28.6473C55.6852 29.0699 57.1565 30.0968 58.1344 31.533" stroke="#523951" stroke-width="3" stroke-linecap="round" stroke-linejoin="round"/>
</svg>
