<svg width="81" height="82" viewBox="0 0 81 82" fill="none" xmlns="http://www.w3.org/2000/svg">
<path d="M23.625 54.4996H22.4606C21.1275 54.0102 14.3268 51.4115 9.75371 50.129C9.47369 50.0534 9.22275 49.8956 9.03325 49.6761C8.84376 49.4565 8.7244 49.1852 8.69058 48.8971C8.50133 47.8582 8.72537 46.7864 9.31495 45.9102C9.54296 45.5941 9.84564 45.3393 10.196 45.1685C10.5464 44.9977 10.9336 44.9163 11.3231 44.9315C11.7256 44.9301 12.1253 44.9986 12.5043 45.134C13.412 45.4932 14.2598 45.9882 15.0187 46.6021L15.3393 46.8552L17.4487 48.3234C18.225 48.8802 18.9168 49.3527 19.4062 49.724L24.3337 51.7321C24.9918 52.0359 27.7087 53.2846 27.7087 53.9934C27.7087 54.7021 24.57 54.6177 23.9118 54.6346L23.625 54.4996Z" fill="#9983B1"/>
<path d="M72.1411 75.6271C65.4365 75.4674 58.7554 74.7733 52.1611 73.5515H51.8067C46.8108 72.8578 41.8667 71.8318 37.0074 70.4802C32.6874 69.1808 28.4349 67.4933 24.3174 65.8734L22.478 65.1477C18.5799 63.629 15.4074 62.3465 12.5217 61.1146L11.4417 60.659C9.7016 59.983 8.0101 59.188 6.37923 58.2796C4.13486 56.9634 3.44298 55.2758 4.37111 53.2171V53.0652C4.64966 52.4214 5.12862 51.8848 5.73673 51.5351C6.34484 51.1855 7.04958 51.0415 7.74611 51.1246H7.93173C8.25776 51.1077 8.58445 51.1077 8.91048 51.1246C12.488 51.5127 22.8661 55.4615 24.908 56.1871L31.658 56.4233H31.8267L47.0142 56.9465C45.833 55.8665 42.8799 53.9934 35.6236 52.1202C34.2399 51.7659 32.9911 51.3609 32.7042 50.4327C32.4726 49.6684 32.4741 48.8523 32.7085 48.0888C32.943 47.3253 33.3998 46.6491 34.0205 46.1465C34.9599 45.6015 36.0426 45.3543 37.1255 45.4377C38.4215 45.4374 39.7129 45.5903 40.973 45.8934C41.7492 46.0959 42.3736 46.2984 42.9811 46.484C44.5561 47.0262 46.1859 47.394 47.8411 47.5809C50.5006 47.9968 53.124 48.6174 55.688 49.4371C64.1255 51.7321 65.813 55.9677 66.8086 58.5159C66.488 57.4696 66.8086 58.2459 66.9774 57.8577L67.2136 57.5202H68.513C69.9642 57.5202 72.7317 57.3684 72.7486 57.3684C73.0727 57.3574 73.3909 57.4565 73.6514 57.6495C73.9119 57.8426 74.0993 58.1182 74.183 58.4315C77.0686 68.9446 73.103 74.7833 72.9342 75.0196C72.8508 75.1682 72.7344 75.2957 72.594 75.3922C72.4536 75.4888 72.2929 75.5518 72.1242 75.5765L72.1411 75.6271Z" fill="#BBA9D1"/>
<path fill-rule="evenodd" clip-rule="evenodd" d="M24.6874 19.653C23.9123 18.8445 22.984 18.1984 21.9566 17.7525C20.9292 17.3065 19.8232 17.0695 18.7033 17.0554C17.5834 17.0412 16.4718 17.2502 15.4335 17.6701C14.3951 18.09 13.4508 18.7125 12.6555 19.5011L12.5037 19.653C10.8814 21.3062 9.97266 23.53 9.97266 25.8461C9.97266 28.1623 10.8814 30.386 12.5037 32.0393L25.6493 45.3705L38.8118 32.0393C40.434 30.386 41.3428 28.1623 41.3428 25.8461C41.3428 23.53 40.434 21.3062 38.8118 19.653C38.0192 18.839 37.0721 18.1914 36.0261 17.748C34.98 17.3047 33.856 17.0746 32.7199 17.0711C31.5858 17.0711 30.4632 17.2997 29.4194 17.7433C28.3757 18.187 27.432 18.8365 26.6449 19.653L25.683 20.6318L24.6874 19.653Z" fill="#DF704D"/>
<path d="M73.6594 58.4151C75.5259 60.8122 76.4179 63.8258 76.1569 66.8526C75.7145 70.124 74.3838 73.2115 72.3094 75.7795C71.6175 76.4545 46.6763 73.282 40.8375 72.1345C34.9988 70.987 6.83438 58.6007 5.75438 57.8751C4.67438 57.1495 4.57313 52.6101 7.66126 51.6482C10.7494 50.6864 17.55 55.2764 23.7431 56.2889C30.8371 57.2489 37.9827 57.7786 45.1406 57.8751C49.3256 57.8751 40.6181 54.2301 38.5594 53.4201C36.5006 52.6101 33.1594 51.952 32.4675 49.7751C31.7756 47.5982 34.02 45.9951 35.8425 45.9951C39.2307 46.4939 42.5604 47.3305 45.7819 48.4926C50.3229 48.3541 54.8437 49.1526 59.0625 50.8382C62.5246 52.3196 65.3269 55.0139 66.9431 58.4151C67.5 59.5626 73.0519 57.8751 73.6594 58.4151Z" stroke="#493D57" stroke-width="3"/>
<path d="M9.23036 51.4119C7.66098 48.0369 9.60161 46.0625 11.8966 46.0625C14.1916 46.0625 15.9466 48.56 19.271 50.8381C23.0289 53.2183 26.9099 55.3982 30.8979 57.3688" stroke="#493D57" stroke-width="3"/>
<path d="M24.2322 18.4384C22.4853 16.7226 20.1292 15.7697 17.6807 15.7887C15.2321 15.8077 12.8911 16.797 11.171 18.5396C9.4382 20.2939 8.45538 22.6532 8.43018 25.1189C8.40499 27.5845 9.33941 29.9634 11.036 31.7527L25.3122 46.0627L39.5378 31.7359C40.5808 30.6673 41.3568 29.3675 41.8025 27.9424C42.2482 26.5173 42.3511 25.007 42.1028 23.5346C41.867 22.0672 41.2848 20.6772 40.4043 19.4798C39.5239 18.2824 38.3707 17.3122 37.0403 16.6496C35.7562 15.9941 34.3307 15.6638 32.8891 15.6877C31.6679 15.6965 30.4606 15.9471 29.3368 16.425C28.2131 16.9029 27.1951 17.5987 26.3416 18.4721L25.2616 19.5015L24.2322 18.4384Z" stroke="#77280C" stroke-width="3" stroke-linecap="round" stroke-linejoin="round"/>
</svg>
