<svg width="81" height="81" viewBox="0 0 81 81" fill="none" xmlns="http://www.w3.org/2000/svg">
<path d="M60.3529 44.9539L58.2688 43.4559C58.2688 43.4559 57.409 35.5285 55.898 33.9929C53.1756 31.2464 51.4431 27.2266 50.2968 23.4314C49.5804 21.0844 49.0724 20.248 46.871 20.2105C46.4293 20.251 46.0004 20.3752 45.6092 20.5759C45.218 20.7767 44.8724 21.0499 44.5924 21.3798C44.3124 21.7097 44.1037 22.0897 43.9783 22.4976C43.8529 22.9055 43.8133 23.3333 43.8619 23.756C43.8965 24.8218 43.9966 25.8848 44.1615 26.9394C44.7481 29.7363 45.6207 32.4711 46.7668 35.104L45.9201 34.6171L25.8078 19.9608C24.3098 18.8747 22.1475 18.3878 20.6886 20.2604C19.2297 22.133 20.402 23.8683 21.9 24.942L32.3209 32.4324L35.4341 34.692L18.7738 22.6948C17.2758 21.6087 15.1134 21.1218 13.6415 22.9944C12.1695 24.8671 13.3679 26.6398 14.8529 27.676L25.2738 35.1664L31.5263 39.6607L17.9792 29.9356C16.4812 28.8495 14.3188 28.3626 12.8469 30.2352C11.375 32.1078 12.5734 33.8431 14.0714 34.9167L24.4922 42.4072L29.7026 46.1524L19.2818 38.662C17.7838 37.5759 15.6605 37.0515 14.2537 38.8367C12.8469 40.622 13.876 42.582 15.374 43.6556L34.3138 57.3881C35.6834 58.3637 37.2436 59.0654 38.9018 59.4514C40.56 59.8375 42.2823 59.9 43.9662 59.6352C45.0213 60.3718 47.0924 61.8824 47.0924 61.8824C49.8778 59.8249 52.3314 57.3851 54.374 54.6416C56.7325 51.6328 58.7376 48.384 60.3529 44.9539V44.9539Z" fill="#49992A"/>
<path d="M47.1176 29.1176L44.4706 25.9412Z" fill="#93D870"/>
<path d="M58.2353 43.4648C57.9087 41.0487 57.6996 33.8131 56.5761 32.6373C53.8456 29.7819 51.5593 28.0505 50.4096 24.1227C49.6911 21.6936 49.1815 20.8279 46.9736 20.7892C46.5306 20.831 46.1004 20.9596 45.7081 21.1674C45.3158 21.3751 44.9691 21.6579 44.6883 21.9994C44.4075 22.3408 44.1981 22.7341 44.0723 23.1562C43.9466 23.5784 43.9069 24.0211 43.9557 24.4586C43.9904 25.5617 44.0907 26.6619 44.2562 27.7534C44.8774 30.7996 45.7513 33.7901 46.8691 36.6944L25.8482 20.983C24.3457 19.8718 22.177 19.3679 20.7138 21.306C19.2505 23.2441 20.4264 25.0271 21.9288 26.1512L32.3805 33.9036L35.5029 36.2293L18.7933 23.8384C17.2908 22.7272 15.1221 22.2233 13.6458 24.1614C12.1695 26.0995 13.3715 27.8826 14.8608 29.0067L25.3125 36.759L31.5835 41.4234L17.9963 31.3194C16.4939 30.2083 14.3252 29.7044 12.8489 31.6425C11.3726 33.5806 12.5745 35.3765 14.077 36.4877L24.5286 44.24L29.7545 48.1162L19.3028 40.3639C17.8004 39.2527 15.6708 38.6971 14.2599 40.5577C12.8489 42.4182 13.881 44.4339 15.3834 45.5321L34.3663 59.3313C35.7398 60.341 37.3047 61.0673 38.9678 61.4668C40.6309 61.8663 42.3583 61.931 44.0471 61.657" stroke="#165209" stroke-width="3" stroke-linecap="round" stroke-linejoin="round"/>
<path d="M69.0588 49.0262L67.0531 47.4403C67.0531 47.4403 66.2258 39.0349 64.7717 37.4226C62.1892 34.1781 60.3454 30.3536 59.3814 26.2419C58.692 23.7572 58.2031 22.8718 56.0846 22.8321C55.66 22.8733 55.2476 23.0033 54.8712 23.2144C54.4948 23.4255 54.1621 23.7136 53.8926 24.0618C53.623 24.41 53.4219 24.8113 53.3011 25.2424C53.1803 25.6734 53.1421 26.1255 53.1889 26.5723C53.2222 27.7006 53.3184 28.8259 53.4772 29.9423C54.2669 34.3036 55.1193 37.8719 55.2196 38.0834L36.1155 23.0171C34.6739 21.8674 32.593 21.3519 31.1765 23.3343C29.76 25.3167 30.9007 27.1538 32.3423 28.2903L42.3707 36.2199L45.3291 38.6252L29.3338 25.9115C27.8922 24.7749 25.8113 24.2595 24.4074 26.2419C23.0034 28.2243 24.1316 30.0481 25.5732 31.1979L35.6016 39.1275L41.5685 43.9116L28.5817 33.5767C27.1401 32.4269 25.0467 31.9247 23.6427 33.8939C22.2387 35.8631 23.3669 37.7133 24.8085 38.8631L34.8369 46.7927L39.8511 50.7575L29.8227 42.8279C28.3811 41.6914 26.3253 41.1231 24.9714 43.0262C23.6176 44.9293 24.6079 46.991 26.0495 48.1143L43.9878 62.2555C47.1593 64.7268 52.8504 65.0572 52.7627 65.0572C53.8898 65.7956 55.0671 66.4449 56.2851 67C59.8983 66.3262 63.1263 64.2104 65.2982 61.0924C67.6264 57.5354 68.9321 53.3459 69.0588 49.0262Z" fill="#6DAE4F"/>
<path d="M55.0588 29.6471L52.9412 27Z" fill="#93D870"/>
<path d="M26.5181 10.8089L27.5062 15.1893L26.5181 10.8089ZM40.5269 16.2221L36.8496 18.711L40.5269 16.2221ZM34.8734 10L32.1842 16.9688L34.8734 10ZM68.7573 48.428C67.8565 47.4778 67.1662 46.3501 66.731 45.1178C66.5058 44.1845 66.4433 43.2138 66.2682 42.2681C65.993 40.8121 65.7554 38.6219 64.6797 37.4895C62.1029 34.4344 60.2632 30.8332 59.3013 26.9616C58.6134 24.622 58.1256 23.7883 56.0117 23.7509C55.5881 23.7897 55.1765 23.9121 54.801 24.1109C54.4255 24.3097 54.0935 24.5809 53.8245 24.9088C53.5555 25.2367 53.3549 25.6146 53.2343 26.0204C53.1138 26.4263 53.0757 26.852 53.1224 27.2727C53.1556 28.3352 53.2517 29.3947 53.4101 30.446C54.1981 34.5526 55.0486 37.9126 55.1487 38.1117L36.0866 23.9252C34.6482 22.8425 32.5719 22.3572 31.1585 24.2238C29.7451 26.0905 30.8833 27.8202 32.3218 28.8904L42.3281 36.357L45.2799 38.6219L29.3199 26.6505C27.8814 25.5803 25.8051 25.0949 24.4043 26.9616C23.0034 28.8282 24.1291 30.5455 25.5675 31.6282L35.5738 39.0948L41.5276 43.5996L28.5694 33.8682C27.131 32.7855 25.0422 32.3126 23.6413 34.1668C22.2404 36.021 23.3661 37.7632 24.8045 38.8459L34.8108 46.3125L39.814 50.0457L29.8077 42.5792C28.3693 41.509 26.318 40.9739 24.9671 42.7658C23.6163 44.5578 24.6044 46.4991 26.0428 47.5569L43.9416 60.8723C45.4202 61.969 47.1317 62.7139 48.9448 63.05C49.7453 63.1994 50.5958 63.274 51.5339 63.4483C52.8778 63.6505 54.1793 64.0709 55.3863 64.6927C56.2254 65.0924 57.1837 65.1678 58.0755 64.9042C61.2008 63.822 63.9282 61.8324 65.9055 59.1923C67.7853 56.6592 68.8651 53.6269 69.0074 50.4813C69.1257 49.7872 69.0388 49.0739 68.7573 48.428V48.428Z" stroke="#165209" stroke-width="3" stroke-linecap="round" stroke-linejoin="round"/>
</svg>
